<svg xmlns="http://www.w3.org/2000/svg" viewBox="0 0 20 25" x="0px" y="0px"><g><path d="M10,2a8,8,0,1,0,8,8A8.00917,8.00917,0,0,0,10,2Zm0,15a7,7,0,1,1,7-7A7.00818,7.00818,0,0,1,10,17Z"/><path d="M12.85352,7.14648a.49983.49983,0,0,0-.707,0L10,9.293,7.85352,7.14648a.5.5,0,0,0-.707.707L9.293,10,7.14648,12.14648a.5.5,0,1,0,.707.707L10,10.707l2.14648,2.14649a.5.5,0,0,0,.707-.707L10.707,10l2.14649-2.14648A.49983.49983,0,0,0,12.85352,7.14648Z"/></g><text x="0" y="35" fill="#000000" font-size="5px" font-weight="bold" font-family="'Helvetica Neue', Helvetica, Arial-Unicode, Arial, Sans-serif">Created by Sophia</text><text x="0" y="40" fill="#000000" font-size="5px" font-weight="bold" font-family="'Helvetica Neue', Helvetica, Arial-Unicode, Arial, Sans-serif">from the Noun Project</text></svg>